<svg xmlns="http://www.w3.org/2000/svg" viewBox="0 0 100.08 42.73"><defs><style>.cls-1,.cls-2{fill:#231f20;}.cls-2{stroke:#231f20;stroke-miterlimit:10;stroke-width:0.5px;}</style></defs><title>Asset-name</title><g id="Layer_2" data-name="Layer 2"><g id="Layer_1-2" data-name="Layer 1"><path class="cls-1" d="M8.09,4V17.05c0,2.76-.57,4-3.59,4H0V0H4.5C7.52,0,8.09,1.21,8.09,4ZM5.46,4c0-1.34-.36-1.73-1.53-1.73H2.63V18.81h1.3c1.17,0,1.53-.39,1.53-1.74Z"/><path class="cls-1" d="M10.19,0h2.63V21H10.19Z"/><path class="cls-1" d="M21.07,16.75H17.62L17.16,21H14.6L17,0h4.68l2.4,21H21.52Zm-.25-2.22L19.51,2.4h-.34l-1.3,12.13Z"/><path class="cls-1" d="M25.86,0h3.48l3.33,16.77h.19l-.07-2.21V0h2.44V21H31.76L28.42,4.25h-.18l.07,2.22V21H25.86Z"/><path class="cls-1" d="M40,2.22V9.39h3.29v2.2H40v7.22H43.3V21h-6V0h6V2.22Z"/><path class="cls-1" d="M60.8,42.73l-1.5-6.67H57.47v6.67H54.84v-21h4.48c3,0,3.54,1.21,3.54,4v6.56a3.43,3.43,0,0,1-1.39,3.18l1.73,7.31ZM58.72,34c1.19,0,1.56-.36,1.56-1.74v-6.6c0-1.37-.37-1.74-1.56-1.74H57.47V34Z"/><path class="cls-1" d="M64.85,21.71h2.63v21H64.85Z"/><path class="cls-1" d="M72.23,23.92v7.29h3.31v2.2H72.23v9.32H69.58v-21h6v2.21Z"/><path class="cls-1" d="M80.29,23.92v7.29h3.32v2.2H80.29v9.32H77.64v-21h6v2.21Z"/><path class="cls-1" d="M88.33,23.92V31.1h3.3v2.19h-3.3v7.22h3.34v2.22h-6v-21h6v2.21Z"/><path class="cls-1" d="M100.08,40.51v2.22H93.77v-21H96.4v18.8Z"/><line class="cls-2" x1="49.62" x2="49.62" y2="42.56"/></g></g></svg>